<?xml version="1.0" standalone="no"?><!DOCTYPE svg PUBLIC "-//W3C//DTD SVG 1.1//EN" "http://www.w3.org/Graphics/SVG/1.1/DTD/svg11.dtd"><svg t="1701137912340" class="icon" viewBox="0 0 1024 1024" version="1.1" xmlns="http://www.w3.org/2000/svg" p-id="9818" xmlns:xlink="http://www.w3.org/1999/xlink" width="200" height="200"><path d="M789.333333 967.168c-45.425778 0-68.152889-22.727111-68.152889-68.167111V490.083556c0-45.44 22.712889-68.152889 68.167112-68.167112h68.152888c45.425778 0 68.152889 22.727111 68.152889 68.167112v408.917333c0 45.44-22.727111 68.152889-68.152889 68.167111H789.333333z m-613.376 0c-45.44 0-68.167111-22.727111-68.167111-68.167111v-170.382222c0-45.44 22.712889-68.152889 68.167111-68.152889h68.124445c45.44 0 68.167111 22.712889 68.181333 68.152889v170.382222c0 45.44-22.727111 68.152889-68.167111 68.167111h-68.138667z m306.688 0c-45.44 0-68.152889-22.712889-68.152889-68.152889V592.327111c0-45.44 22.712889-68.152889 68.152889-68.167111h68.152889c45.425778 0 68.152889 22.727111 68.167111 68.167111v306.688c0 45.44-22.727111 68.152889-68.167111 68.152889h-68.152889zM136.248889 488.903111A51.100444 51.100444 0 1 1 100.977778 400.981333l110.392889-105.472c75.875556-74.851556 196.536889-78.862222 277.219555-9.201777a104.135111 104.135111 0 0 0 136.32-1.180445l149.504-125.923555h-51.697778a51.2 51.2 0 0 1-51.2-51.114667 51.2 51.2 0 0 1 51.2-51.2h176.184889a51.2 51.2 0 0 1 51.114667 51.2v176.170667a51.114667 51.114667 0 1 1-102.229333 0v-53.376L691.2 362.126222a207.018667 207.018667 0 0 1-268.8 1.550222 103.438222 103.438222 0 0 0-139.889778 4.935112l-110.762666 106.154666a51.2 51.2 0 0 1-35.285334 14.136889H136.248889z" fill="#323233" p-id="9819"></path></svg>